<svg xmlns="http://www.w3.org/2000/svg" width="14" height="14" viewBox="0 0 14 14" fill="none">
<path fill-rule="evenodd" clip-rule="evenodd" d="M1.85044 0.17262C1.41549 0.59695 0.822783 1.8894 0.597056 2.90585C0.451694 3.56023 0.332485 4.70661 0.402187 4.78005C0.431021 4.81044 1.21693 4.82782 2.14861 4.81866L3.84255 4.80196L3.82611 4.36257C3.77595 3.02429 3.41773 1.79537 2.7558 0.690478C2.48843 0.244304 2.26866 0 2.13449 0C2.07557 0 1.94779 0.0776474 1.85044 0.17262ZM6.678 0.238341C6.41015 0.536376 5.89811 1.51692 5.69556 2.11952C5.49056 2.72959 5.31333 3.68401 5.29075 4.2998L5.27234 4.80196H7H8.72766L8.70925 4.2998C8.68667 3.68401 8.50944 2.72959 8.30444 2.11952C7.97917 1.15178 7.27035 0 7 0C6.94072 0 6.79584 0.107275 6.678 0.238341ZM11.6047 0.17262C11.5202 0.267592 11.358 0.500597 11.2442 0.690478C10.5823 1.79537 10.2241 3.02429 10.1739 4.36257L10.1574 4.80196L11.8514 4.81866C12.7831 4.82782 13.569 4.81044 13.5978 4.78005C13.6675 4.70661 13.5483 3.56023 13.4029 2.90585C13.1092 1.58295 12.2716 0 11.8655 0C11.8066 0 11.6893 0.0776474 11.6047 0.17262ZM0.357447 8.28574V11.0476H2.11489H3.87234V8.28574V5.52382H2.11489H0.357447V8.28574ZM5.24255 8.28574V11.0476H7H8.75745V8.28574V5.52382H7H5.24255V8.28574ZM10.1277 8.28574V11.0476H11.8851H13.6426V8.28574V5.52382H11.8851H10.1277V8.28574ZM0.297872 11.7813C0.0205532 11.8929 0 11.9686 0 12.8777C0 13.6631 0.0114979 13.7589 0.119149 13.8723C0.233234 13.9925 0.317711 13.9979 2.11489 13.9979C3.91208 13.9979 3.99655 13.9925 4.11064 13.8723C4.21793 13.7593 4.22979 13.6631 4.22979 12.9064C4.22979 12.1726 4.21531 12.0471 4.11594 11.9177L4.00215 11.7695L2.19466 11.7575C1.2006 11.7508 0.347021 11.7615 0.297872 11.7813ZM5.18298 11.7813C4.90566 11.8929 4.88511 11.9686 4.88511 12.8777C4.88511 13.6631 4.8966 13.7589 5.00426 13.8723C5.11834 13.9925 5.20282 13.9979 7 13.9979C8.79718 13.9979 8.88166 13.9925 8.99574 13.8723C9.1034 13.7589 9.11489 13.6631 9.11489 12.8777C9.11489 12.0741 9.10542 11.9996 8.98961 11.8891C8.87284 11.7777 8.74178 11.7687 7.06833 11.7575C6.08053 11.7508 5.23213 11.7615 5.18298 11.7813ZM10.0273 11.8C9.80983 11.8946 9.77021 12.0683 9.77021 12.9266C9.77021 14.0979 9.57272 13.9979 11.8851 13.9979C13.6823 13.9979 13.7668 13.9925 13.8809 13.8723C13.9885 13.7589 14 13.6631 14 12.8777C14 12.0741 13.9905 11.9996 13.8747 11.8891C13.7579 11.7777 13.6261 11.7686 11.9534 11.7565C10.9656 11.7492 10.0989 11.7689 10.0273 11.8Z" fill="#0099ff"/>
</svg>