<svg xmlns="http://www.w3.org/2000/svg" width="15" height="15" viewBox="0 0 15 15" fill="none">
<path d="M13.1813 4.3625C12.65 3.775 11.7625 3.48125 10.475 3.48125H10.325V3.45625C10.325 2.40625 10.325 1.10625 7.97502 1.10625H7.02502C4.67502 1.10625 4.67502 2.4125 4.67502 3.45625V3.4875H4.52502C3.23127 3.4875 2.35002 3.78125 1.81877 4.36875C1.20002 5.05625 1.21877 5.98125 1.28127 6.6125L1.28752 6.65625L1.32748 7.07578C1.34174 7.22555 1.42255 7.36106 1.54876 7.44295C1.69792 7.53973 1.89757 7.66669 2.02502 7.7375C2.11252 7.79375 2.20627 7.84375 2.30002 7.89375C3.36877 8.48125 4.54377 8.875 5.73752 9.06875C5.79377 9.65625 6.05002 10.3437 7.41877 10.3437C8.78752 10.3437 9.05627 9.6625 9.10002 9.05625C10.375 8.85 11.6063 8.40625 12.7188 7.75625C12.7563 7.7375 12.7813 7.71875 12.8125 7.7C13.0372 7.57302 13.2695 7.41933 13.4855 7.26576C13.5991 7.18503 13.6713 7.05875 13.6867 6.92024L13.6875 6.9125L13.7188 6.61875C13.725 6.58125 13.725 6.55 13.7313 6.50625C13.7813 5.875 13.7688 5.0125 13.1813 4.3625ZM8.18127 8.64375C8.18127 9.30625 8.18127 9.40625 7.41252 9.40625C6.64377 9.40625 6.64377 9.2875 6.64377 8.65V7.8625H8.18127V8.64375ZM5.56877 3.48125V3.45625C5.56877 2.39375 5.56877 2 7.02502 2H7.97502C9.43127 2 9.43127 2.4 9.43127 3.45625V3.4875H5.56877V3.48125Z" fill="#0099ff"/>
<path d="M12.7422 8.72691C13.0971 8.56146 13.5044 8.84254 13.4689 9.23253L13.275 11.3687C13.1438 12.6187 12.6313 13.8937 9.88127 13.8937H5.11877C2.36877 13.8937 1.85627 12.6187 1.72502 11.375L1.54181 9.35967C1.50677 8.97421 1.90508 8.69374 2.25891 8.85063C2.96503 9.16372 3.9912 9.59601 4.69916 9.79601C4.86261 9.84218 4.99475 9.96073 5.07408 10.1109C5.47144 10.8632 6.27617 11.2625 7.41877 11.2625C8.5502 11.2625 9.36415 10.8477 9.7633 10.0924C9.84273 9.94208 9.97522 9.82356 10.1387 9.77696C10.8945 9.56155 11.9969 9.07436 12.7422 8.72691Z" fill="#0099ff"/>
</svg>