<svg xmlns="http://www.w3.org/2000/svg" width="21" height="17" viewBox="0 0 21 17" fill="none">
<mask id="path-1-inside-1_89_49" fill="#ffffff">
<path fill-rule="evenodd" clip-rule="evenodd" d="M8.28234 0.00936022C8.28234 0.0141127 8.22225 0.136481 8.14882 0.281278C8.07538 0.426066 7.99791 0.579212 7.97665 0.621592C7.95539 0.663972 7.877 0.818303 7.80244 0.964551C7.72788 1.1108 7.64577 1.27234 7.61997 1.32354C7.50656 1.54856 7.36056 1.83743 7.3055 1.94577C7.24486 2.06507 7.07731 2.39603 6.97811 2.59249C6.94817 2.65177 6.8734 2.79949 6.81196 2.92075C6.75051 3.04201 6.67801 3.18532 6.65085 3.23921C6.59037 3.3592 6.4061 3.72287 6.31818 3.89574C6.28256 3.9658 6.23586 4.0584 6.2144 4.10151C6.17877 4.17314 6.14146 4.24661 5.98058 4.56206C5.89575 4.72837 5.71142 5.09258 5.66018 5.19508C5.63487 5.24573 5.56274 5.38859 5.49989 5.51254C5.43705 5.6365 5.36114 5.78642 5.33122 5.8457C5.26991 5.96711 5.09606 6.31005 4.99838 6.50223C4.96277 6.57229 4.91608 6.66489 4.89463 6.708C4.87317 6.75112 4.81944 6.85694 4.77522 6.94317C4.731 7.0294 4.6737 7.14185 4.6479 7.19305C4.62208 7.24424 4.55186 7.38314 4.49183 7.50171C4.43181 7.62027 4.31133 7.85839 4.22412 8.03085C4.1369 8.20331 4.03871 8.39732 4.00593 8.46199C3.97313 8.52667 3.89828 8.67463 3.83956 8.7908C3.78086 8.90697 3.70945 9.04807 3.68086 9.10436C3.65228 9.16065 3.57643 9.31033 3.5123 9.43698C3.44817 9.56363 3.37108 9.71576 3.34095 9.77504C3.28446 9.88625 3.10254 10.2454 3.01094 10.4267C2.7723 10.8987 2.72267 10.9976 2.72267 11.001C2.72267 11.0031 6.28773 11.0048 10.645 11.0048H18.5674L18.6431 10.8456C18.6848 10.758 18.7841 10.5518 18.8637 10.3875C19.0169 10.0715 19.2896 9.50842 19.381 9.31939C19.411 9.25741 19.5091 9.05458 19.5992 8.86865C19.7955 8.46308 19.8807 8.28679 20.0587 7.91816C20.1329 7.76456 20.2045 7.61684 20.2179 7.5899C20.2636 7.49816 20.4702 7.07087 20.5116 6.98237C20.5598 6.87935 20.786 6.41253 20.8154 6.35524C20.8265 6.33369 20.8726 6.23888 20.9178 6.14457L21 5.97309L20.9244 5.83591C20.8593 5.7179 20.6802 5.39788 20.5294 5.13039C20.5051 5.08727 20.4606 5.0079 20.4305 4.95401C20.4003 4.90012 20.3468 4.80531 20.3114 4.74334C20.276 4.68136 20.2269 4.59317 20.2022 4.54736C20.1776 4.50155 20.154 4.45966 20.1499 4.45427C20.1457 4.44888 20.0908 4.35187 20.0277 4.2387C19.9647 4.12552 19.8723 3.96016 19.8224 3.87124C19.7725 3.78231 19.6382 3.542 19.5239 3.3372C19.4096 3.13241 19.308 2.95162 19.2979 2.93545C19.2879 2.91928 19.241 2.8355 19.1937 2.74927C19.1464 2.66304 19.1043 2.58808 19.1002 2.58269C19.0961 2.5773 19.0563 2.50675 19.0117 2.42591C18.9672 2.34507 18.8844 2.19735 18.8278 2.09765C18.7712 1.99795 18.7141 1.89653 18.7009 1.87228C18.6876 1.84802 18.6394 1.76204 18.5938 1.6812C18.5481 1.60036 18.4627 1.44823 18.4039 1.34314C18.2837 1.12781 18.1575 0.903132 18.0272 0.671918C17.9786 0.585689 17.9096 0.462223 17.8738 0.397551C17.838 0.332879 17.78 0.229256 17.7448 0.167278C17.7097 0.105301 17.6745 0.0424607 17.6666 0.0276448C17.6587 0.012829 17.6496 0.000756818 17.6463 0.00082541C17.6429 0.000894001 17.6277 0.0262534 17.6124 0.0571687C17.5971 0.0880841 17.5746 0.133227 17.5624 0.157479C17.5502 0.181732 17.4791 0.32504 17.4044 0.475942C17.3297 0.626844 17.2547 0.776766 17.2379 0.809102C17.221 0.841438 17.1629 0.957898 17.1086 1.0679C17.0544 1.17791 16.9653 1.35649 16.9106 1.46475C16.8559 1.57302 16.7633 1.75861 16.7048 1.87718C16.5893 2.11102 16.2818 2.72752 16.2137 2.86196C16.1904 2.90777 16.1143 3.0599 16.0446 3.20002C15.9748 3.34014 15.8464 3.5981 15.7592 3.77325C15.672 3.9484 15.5259 4.24163 15.4345 4.42487C15.3431 4.60811 15.1959 4.90355 15.1073 5.0814C15.0187 5.25924 14.9217 5.45326 14.8918 5.51254C14.8618 5.57183 14.787 5.72175 14.7254 5.8457C14.6639 5.96966 14.589 6.11958 14.5591 6.17887C14.5292 6.23815 14.459 6.37925 14.403 6.49243C14.3471 6.6056 14.2699 6.75994 14.2315 6.83539C14.1931 6.91084 14.1207 7.05635 14.0704 7.15875C14.0202 7.26115 13.9478 7.40666 13.9095 7.48211C13.8711 7.55756 13.7963 7.70748 13.7432 7.81527C13.6362 8.03252 13.4933 8.31675 13.4796 8.33951C13.4719 8.35245 13.2928 8.3545 11.9826 8.35669L10.4944 8.35917L10.5016 8.33709C10.5056 8.32495 10.5147 8.30399 10.522 8.29051C10.5346 8.26689 10.5917 8.14363 10.8077 7.67319C10.8634 7.55193 10.9546 7.3535 11.0104 7.23224C11.0663 7.11098 11.1434 6.94342 11.1818 6.85988C11.2202 6.77635 11.2926 6.61981 11.3426 6.51203C11.3925 6.40424 11.4464 6.28739 11.4623 6.25236C11.4782 6.21733 11.5128 6.14241 11.5391 6.08588C11.5654 6.02936 11.5869 5.97866 11.5869 5.9732C11.5869 5.96209 11.5706 5.93177 11.3716 5.57134C11.1411 5.15381 11.1052 5.08863 11.0154 4.92461C10.9682 4.83838 10.9167 4.74579 10.901 4.71884C10.8854 4.69189 10.8246 4.58165 10.7659 4.47387C10.7073 4.36608 10.6371 4.23821 10.61 4.1897C10.5829 4.1412 10.5268 4.03978 10.4853 3.96433C10.4438 3.88888 10.3831 3.77864 10.3504 3.71936C10.3176 3.66007 10.2521 3.54102 10.2048 3.45479C10.1575 3.36856 10.1013 3.26714 10.08 3.22941C10.0587 3.19169 10.0002 3.08586 9.95002 2.99424C9.89981 2.90262 9.77226 2.67113 9.66659 2.4798C9.56091 2.28848 9.44415 2.07683 9.40713 2.00946C9.37012 1.94209 9.31056 1.83406 9.27479 1.76939C9.23902 1.70472 9.18177 1.60109 9.14758 1.53912C9.11338 1.47714 9.05256 1.3669 9.01242 1.29414C8.97227 1.22139 8.84947 0.99871 8.73952 0.799303C8.48311 0.334299 8.43393 0.245159 8.35973 0.110935C8.3055 0.012829 8.28234 -0.0175768 8.28234 0.00936022ZM2.41009 12.1635C2.38126 12.2188 2.31357 12.3528 2.25966 12.4614C2.20577 12.57 2.12839 12.7244 2.08772 12.8044C2.04704 12.8844 1.98672 13.005 1.95368 13.0723C1.92063 13.1397 1.86445 13.2522 1.82883 13.3222C1.79321 13.3923 1.73472 13.5091 1.69885 13.5819C1.66297 13.6546 1.60224 13.7759 1.56389 13.8514C1.52553 13.9268 1.46476 14.0481 1.42882 14.1208C1.39289 14.1936 1.33437 14.3104 1.29879 14.3805C1.26321 14.4506 1.20472 14.5674 1.16884 14.6402C1.13295 14.7129 1.07455 14.8298 1.03905 14.8998C1.00357 14.9699 0.940518 15.0956 0.898961 15.1791C0.857404 15.2626 0.796569 15.3839 0.763783 15.4486C0.730996 15.5132 0.67487 15.6257 0.639049 15.6984C0.603228 15.7712 0.54707 15.8836 0.514242 15.9483C0.481425 16.013 0.401834 16.1717 0.337383 16.3011C0.272933 16.4304 0.170645 16.635 0.110092 16.7558C0.0495485 16.8765 0 16.9813 0 16.9885C0 16.9996 0.522016 17.0013 3.18771 16.9993L6.37542 16.9968L6.40352 16.9429C6.41899 16.9132 6.52005 16.7082 6.62811 16.4872C6.79484 16.1464 7.1044 15.5154 7.41649 14.8803C7.45885 14.7941 7.49705 14.7202 7.50138 14.7161C7.50571 14.712 8.18804 14.7098 9.01766 14.7112L10.5261 14.7137L10.4218 14.9194C10.3644 15.0326 10.2973 15.1649 10.2726 15.2134C10.141 15.4722 9.97883 15.7923 9.94003 15.8699C9.91577 15.9184 9.81875 16.1102 9.72444 16.2962C9.41387 16.9084 9.37348 16.9888 9.37348 16.9953C9.37348 16.9988 10.8051 17.0006 12.5549 16.9993C15.37 16.9971 15.7373 16.9951 15.7452 16.9821C15.7572 16.9623 16.0866 16.3243 16.0866 16.3208C16.0866 16.3193 16.1615 16.1737 16.2529 15.9973C16.3444 15.8209 16.4192 15.6754 16.4192 15.6739C16.4192 15.6724 16.4963 15.5226 16.5906 15.3409C16.685 15.1593 16.7621 15.0095 16.7621 15.0081C16.7621 15.0066 16.8247 14.8847 16.9011 14.7371C16.9776 14.5895 17.0706 14.4092 17.1078 14.3364C17.2406 14.0765 17.3332 13.8965 17.4675 13.6371C17.5425 13.4922 17.6039 13.3725 17.6039 13.371C17.6039 13.3695 17.681 13.2196 17.7753 13.0379C17.8696 12.8562 17.9468 12.7064 17.9468 12.705C17.9468 12.7036 18.0193 12.5627 18.1079 12.3918C18.1965 12.2209 18.2689 12.077 18.2689 12.0721C18.2689 12.0666 15.1637 12.0631 10.3657 12.0631H2.46251L2.41009 12.1635Z" fill="#000000"/>
</mask>
<path fill-rule="evenodd" clip-rule="evenodd" d="M8.28234 0.00936022C8.28234 0.0141127 8.22225 0.136481 8.14882 0.281278C8.07538 0.426066 7.99791 0.579212 7.97665 0.621592C7.95539 0.663972 7.877 0.818303 7.80244 0.964551C7.72788 1.1108 7.64577 1.27234 7.61997 1.32354C7.50656 1.54856 7.36056 1.83743 7.3055 1.94577C7.24486 2.06507 7.07731 2.39603 6.97811 2.59249C6.94817 2.65177 6.8734 2.79949 6.81196 2.92075C6.75051 3.04201 6.67801 3.18532 6.65085 3.23921C6.59037 3.3592 6.4061 3.72287 6.31818 3.89574C6.28256 3.9658 6.23586 4.0584 6.2144 4.10151C6.17877 4.17314 6.14146 4.24661 5.98058 4.56206C5.89575 4.72837 5.71142 5.09258 5.66018 5.19508C5.63487 5.24573 5.56274 5.38859 5.49989 5.51254C5.43705 5.6365 5.36114 5.78642 5.33122 5.8457C5.26991 5.96711 5.09606 6.31005 4.99838 6.50223C4.96277 6.57229 4.91608 6.66489 4.89463 6.708C4.87317 6.75112 4.81944 6.85694 4.77522 6.94317C4.731 7.0294 4.6737 7.14185 4.6479 7.19305C4.62208 7.24424 4.55186 7.38314 4.49183 7.50171C4.43181 7.62027 4.31133 7.85839 4.22412 8.03085C4.1369 8.20331 4.03871 8.39732 4.00593 8.46199C3.97313 8.52667 3.89828 8.67463 3.83956 8.7908C3.78086 8.90697 3.70945 9.04807 3.68086 9.10436C3.65228 9.16065 3.57643 9.31033 3.5123 9.43698C3.44817 9.56363 3.37108 9.71576 3.34095 9.77504C3.28446 9.88625 3.10254 10.2454 3.01094 10.4267C2.7723 10.8987 2.72267 10.9976 2.72267 11.001C2.72267 11.0031 6.28773 11.0048 10.645 11.0048H18.5674L18.6431 10.8456C18.6848 10.758 18.7841 10.5518 18.8637 10.3875C19.0169 10.0715 19.2896 9.50842 19.381 9.31939C19.411 9.25741 19.5091 9.05458 19.5992 8.86865C19.7955 8.46308 19.8807 8.28679 20.0587 7.91816C20.1329 7.76456 20.2045 7.61684 20.2179 7.5899C20.2636 7.49816 20.4702 7.07087 20.5116 6.98237C20.5598 6.87935 20.786 6.41253 20.8154 6.35524C20.8265 6.33369 20.8726 6.23888 20.9178 6.14457L21 5.97309L20.9244 5.83591C20.8593 5.7179 20.6802 5.39788 20.5294 5.13039C20.5051 5.08727 20.4606 5.0079 20.4305 4.95401C20.4003 4.90012 20.3468 4.80531 20.3114 4.74334C20.276 4.68136 20.2269 4.59317 20.2022 4.54736C20.1776 4.50155 20.154 4.45966 20.1499 4.45427C20.1457 4.44888 20.0908 4.35187 20.0277 4.2387C19.9647 4.12552 19.8723 3.96016 19.8224 3.87124C19.7725 3.78231 19.6382 3.542 19.5239 3.3372C19.4096 3.13241 19.308 2.95162 19.2979 2.93545C19.2879 2.91928 19.241 2.8355 19.1937 2.74927C19.1464 2.66304 19.1043 2.58808 19.1002 2.58269C19.0961 2.5773 19.0563 2.50675 19.0117 2.42591C18.9672 2.34507 18.8844 2.19735 18.8278 2.09765C18.7712 1.99795 18.7141 1.89653 18.7009 1.87228C18.6876 1.84802 18.6394 1.76204 18.5938 1.6812C18.5481 1.60036 18.4627 1.44823 18.4039 1.34314C18.2837 1.12781 18.1575 0.903132 18.0272 0.671918C17.9786 0.585689 17.9096 0.462223 17.8738 0.397551C17.838 0.332879 17.78 0.229256 17.7448 0.167278C17.7097 0.105301 17.6745 0.0424607 17.6666 0.0276448C17.6587 0.012829 17.6496 0.000756818 17.6463 0.00082541C17.6429 0.000894001 17.6277 0.0262534 17.6124 0.0571687C17.5971 0.0880841 17.5746 0.133227 17.5624 0.157479C17.5502 0.181732 17.4791 0.32504 17.4044 0.475942C17.3297 0.626844 17.2547 0.776766 17.2379 0.809102C17.221 0.841438 17.1629 0.957898 17.1086 1.0679C17.0544 1.17791 16.9653 1.35649 16.9106 1.46475C16.8559 1.57302 16.7633 1.75861 16.7048 1.87718C16.5893 2.11102 16.2818 2.72752 16.2137 2.86196C16.1904 2.90777 16.1143 3.0599 16.0446 3.20002C15.9748 3.34014 15.8464 3.5981 15.7592 3.77325C15.672 3.9484 15.5259 4.24163 15.4345 4.42487C15.3431 4.60811 15.1959 4.90355 15.1073 5.0814C15.0187 5.25924 14.9217 5.45326 14.8918 5.51254C14.8618 5.57183 14.787 5.72175 14.7254 5.8457C14.6639 5.96966 14.589 6.11958 14.5591 6.17887C14.5292 6.23815 14.459 6.37925 14.403 6.49243C14.3471 6.6056 14.2699 6.75994 14.2315 6.83539C14.1931 6.91084 14.1207 7.05635 14.0704 7.15875C14.0202 7.26115 13.9478 7.40666 13.9095 7.48211C13.8711 7.55756 13.7963 7.70748 13.7432 7.81527C13.6362 8.03252 13.4933 8.31675 13.4796 8.33951C13.4719 8.35245 13.2928 8.3545 11.9826 8.35669L10.4944 8.35917L10.5016 8.33709C10.5056 8.32495 10.5147 8.30399 10.522 8.29051C10.5346 8.26689 10.5917 8.14363 10.8077 7.67319C10.8634 7.55193 10.9546 7.3535 11.0104 7.23224C11.0663 7.11098 11.1434 6.94342 11.1818 6.85988C11.2202 6.77635 11.2926 6.61981 11.3426 6.51203C11.3925 6.40424 11.4464 6.28739 11.4623 6.25236C11.4782 6.21733 11.5128 6.14241 11.5391 6.08588C11.5654 6.02936 11.5869 5.97866 11.5869 5.9732C11.5869 5.96209 11.5706 5.93177 11.3716 5.57134C11.1411 5.15381 11.1052 5.08863 11.0154 4.92461C10.9682 4.83838 10.9167 4.74579 10.901 4.71884C10.8854 4.69189 10.8246 4.58165 10.7659 4.47387C10.7073 4.36608 10.6371 4.23821 10.61 4.1897C10.5829 4.1412 10.5268 4.03978 10.4853 3.96433C10.4438 3.88888 10.3831 3.77864 10.3504 3.71936C10.3176 3.66007 10.2521 3.54102 10.2048 3.45479C10.1575 3.36856 10.1013 3.26714 10.08 3.22941C10.0587 3.19169 10.0002 3.08586 9.95002 2.99424C9.89981 2.90262 9.77226 2.67113 9.66659 2.4798C9.56091 2.28848 9.44415 2.07683 9.40713 2.00946C9.37012 1.94209 9.31056 1.83406 9.27479 1.76939C9.23902 1.70472 9.18177 1.60109 9.14758 1.53912C9.11338 1.47714 9.05256 1.3669 9.01242 1.29414C8.97227 1.22139 8.84947 0.99871 8.73952 0.799303C8.48311 0.334299 8.43393 0.245159 8.35973 0.110935C8.3055 0.012829 8.28234 -0.0175768 8.28234 0.00936022ZM2.41009 12.1635C2.38126 12.2188 2.31357 12.3528 2.25966 12.4614C2.20577 12.57 2.12839 12.7244 2.08772 12.8044C2.04704 12.8844 1.98672 13.005 1.95368 13.0723C1.92063 13.1397 1.86445 13.2522 1.82883 13.3222C1.79321 13.3923 1.73472 13.5091 1.69885 13.5819C1.66297 13.6546 1.60224 13.7759 1.56389 13.8514C1.52553 13.9268 1.46476 14.0481 1.42882 14.1208C1.39289 14.1936 1.33437 14.3104 1.29879 14.3805C1.26321 14.4506 1.20472 14.5674 1.16884 14.6402C1.13295 14.7129 1.07455 14.8298 1.03905 14.8998C1.00357 14.9699 0.940518 15.0956 0.898961 15.1791C0.857404 15.2626 0.796569 15.3839 0.763783 15.4486C0.730996 15.5132 0.67487 15.6257 0.639049 15.6984C0.603228 15.7712 0.54707 15.8836 0.514242 15.9483C0.481425 16.013 0.401834 16.1717 0.337383 16.3011C0.272933 16.4304 0.170645 16.635 0.110092 16.7558C0.0495485 16.8765 0 16.9813 0 16.9885C0 16.9996 0.522016 17.0013 3.18771 16.9993L6.37542 16.9968L6.40352 16.9429C6.41899 16.9132 6.52005 16.7082 6.62811 16.4872C6.79484 16.1464 7.1044 15.5154 7.41649 14.8803C7.45885 14.7941 7.49705 14.7202 7.50138 14.7161C7.50571 14.712 8.18804 14.7098 9.01766 14.7112L10.5261 14.7137L10.4218 14.9194C10.3644 15.0326 10.2973 15.1649 10.2726 15.2134C10.141 15.4722 9.97883 15.7923 9.94003 15.8699C9.91577 15.9184 9.81875 16.1102 9.72444 16.2962C9.41387 16.9084 9.37348 16.9888 9.37348 16.9953C9.37348 16.9988 10.8051 17.0006 12.5549 16.9993C15.37 16.9971 15.7373 16.9951 15.7452 16.9821C15.7572 16.9623 16.0866 16.3243 16.0866 16.3208C16.0866 16.3193 16.1615 16.1737 16.2529 15.9973C16.3444 15.8209 16.4192 15.6754 16.4192 15.6739C16.4192 15.6724 16.4963 15.5226 16.5906 15.3409C16.685 15.1593 16.7621 15.0095 16.7621 15.0081C16.7621 15.0066 16.8247 14.8847 16.9011 14.7371C16.9776 14.5895 17.0706 14.4092 17.1078 14.3364C17.2406 14.0765 17.3332 13.8965 17.4675 13.6371C17.5425 13.4922 17.6039 13.3725 17.6039 13.371C17.6039 13.3695 17.681 13.2196 17.7753 13.0379C17.8696 12.8562 17.9468 12.7064 17.9468 12.705C17.9468 12.7036 18.0193 12.5627 18.1079 12.3918C18.1965 12.2209 18.2689 12.077 18.2689 12.0721C18.2689 12.0666 15.1637 12.0631 10.3657 12.0631H2.46251L2.41009 12.1635Z" fill="#000000" stroke="#0099ff" stroke-width="2" mask="url(#path-1-inside-1_89_49)"/>
<defs fill="#000000">
<radialGradient id="paint0_radial_89_49" cx="0" cy="0" r="1" gradientUnits="userSpaceOnUse" gradientTransform="translate(10.5 8.5) rotate(74.7519) scale(21.2096 26.0561)" fill="#000000">
<stop stop-color="#0099ff" fill="#000000"/>
<stop offset="1" fill="#000000"/>
</radialGradient>
</defs>
</svg>