<svg width="20" height="20" viewBox="0 0 20 20" fill="none" xmlns="http://www.w3.org/2000/svg">
<path d="M18.3334 9.14166V10.8583C18.3334 11.3167 17.9667 11.6917 17.5 11.7083H15.8667C14.9667 11.7083 14.1417 11.05 14.0667 10.15C14.0167 9.625 14.2167 9.13333 14.5667 8.79166C14.875 8.475 15.3 8.29166 15.7667 8.29166H17.5C17.9667 8.30833 18.3334 8.68333 18.3334 9.14166Z" fill="white"/>
<path d="M17.0584 12.9583H15.8667C14.2834 12.9583 12.9501 11.7667 12.8167 10.25C12.7417 9.38334 13.0584 8.51667 13.6917 7.9C14.2251 7.35 14.9667 7.04167 15.7667 7.04167H17.0584C17.3001 7.04167 17.5001 6.84167 17.4751 6.60001C17.2917 4.57501 15.9501 3.19167 13.9584 2.95834C13.7584 2.92501 13.5501 2.91667 13.3334 2.91667H5.83341C5.60008 2.91667 5.37508 2.93334 5.15841 2.96667C3.03341 3.23334 1.66675 4.81667 1.66675 7.08334V12.9167C1.66675 15.2167 3.53341 17.0833 5.83341 17.0833H13.3334C15.6667 17.0833 17.2751 15.625 17.4751 13.4C17.5001 13.1583 17.3001 12.9583 17.0584 12.9583ZM10.8334 8.125H5.83341C5.49175 8.125 5.20841 7.84167 5.20841 7.5C5.20841 7.15834 5.49175 6.87501 5.83341 6.87501H10.8334C11.1751 6.87501 11.4584 7.15834 11.4584 7.5C11.4584 7.84167 11.1751 8.125 10.8334 8.125Z" fill="white"/>
</svg>
