<svg xmlns="http://www.w3.org/2000/svg" width="15" height="15" viewBox="0 0 15 15" fill="none">
<path d="M13.3125 7.64375H11.1375C10.525 7.64375 9.98125 7.98125 9.70625 8.53125L9.18125 9.56875C9.05625 9.81875 8.80625 9.975 8.53125 9.975H6.48125C6.2875 9.975 6.0125 9.93125 5.83125 9.56875L5.30625 8.5375C5.03125 7.99375 4.48125 7.65 3.875 7.65H1.6875C1.44375 7.65 1.25 7.84375 1.25 8.0875V10.125C1.25 12.3938 2.6125 13.75 4.8875 13.75H10.125C12.2688 13.75 13.5875 12.575 13.75 10.4875V8.08125C13.75 7.84375 13.5562 7.64375 13.3125 7.64375Z" fill="#0099ff"/>
<path d="M10.1188 1.25H4.88125C2.60625 1.25 1.25 2.60625 1.25 4.88125V6.78125C1.3875 6.73125 1.5375 6.70625 1.6875 6.70625H3.875C4.84375 6.70625 5.7125 7.24375 6.14375 8.1125L6.6125 9.03125H8.4L8.86875 8.10625C9.3 7.24375 10.1687 6.70625 11.1375 6.70625H13.3125C13.4625 6.70625 13.6125 6.73125 13.75 6.78125V4.88125C13.75 2.60625 12.3938 1.25 10.1188 1.25ZM6.53125 3.38125H8.46875C8.70625 3.38125 8.90625 3.575 8.90625 3.8125C8.90625 4.05625 8.70625 4.25 8.46875 4.25H6.53125C6.29375 4.25 6.09375 4.05625 6.09375 3.8125C6.09375 3.575 6.29375 3.38125 6.53125 3.38125ZM8.95625 5.99375H6.04375C5.80625 5.99375 5.6125 5.8 5.6125 5.5625C5.6125 5.31875 5.80625 5.125 6.04375 5.125H8.95625C9.19375 5.125 9.3875 5.31875 9.3875 5.5625C9.3875 5.8 9.19375 5.99375 8.95625 5.99375Z" fill="#0099ff"/>
</svg>