<svg width="18" height="21" viewBox="0 0 18 21" fill="none" xmlns="http://www.w3.org/2000/svg">
<path d="M13.4548 4.08135L13.4548 4.08132C12.9746 2.70016 11.6663 1.51079 10.1912 1.13344L13.4548 4.08135ZM13.4548 4.08135C13.8993 5.35962 13.8301 6.61456 13.2722 7.73923C12.0853 10.1317 9.30124 11.0743 6.91006 9.89504C5.77707 9.33622 4.80141 8.13503 4.46131 6.86332M13.4548 4.08135L7.84085 1.1374M0.248176 14.7333L0.694845 14.9543L0.561715 15.2233L0.654664 15.3988L0.65468 15.3988C1.14887 16.3319 2.40423 17.6305 3.63151 18.4356L3.36826 18.8369L3.63152 18.4356C4.72228 19.1512 5.93352 19.6461 7.21122 19.8983L7.21125 19.8983C7.57382 19.9699 8.30776 20.0067 9.08407 19.999C9.86016 19.9913 10.5946 19.94 10.958 19.8611C12.2888 19.5722 13.4728 19.0693 14.588 18.3202C14.9568 18.0725 15.4688 17.6242 15.9684 17.1198C16.4671 16.6163 16.9224 16.0883 17.1879 15.6938M0.248176 14.7333L17.1879 15.6938M0.248176 14.7333L0.694845 14.9543C1.44928 13.4299 3.11111 12.1662 4.81578 11.829C5.13674 11.7656 5.21814 11.7634 5.27795 11.7743C5.34213 11.7861 5.42686 11.8215 5.72285 11.9984C6.27168 12.3266 6.72572 12.5553 7.20066 12.7055C7.67852 12.8566 8.15306 12.9205 8.73503 12.9475C10.1514 13.013 11.3686 12.6806 12.4862 11.9094C12.6211 11.8164 12.642 11.813 12.6493 11.8119C12.6497 11.8118 12.6501 11.8118 12.6504 11.8117C12.6852 11.8047 12.7544 11.8017 13.0248 11.8225C14.4971 11.936 16.2684 13.0998 17.2078 14.65L17.6231 14.3984L17.2078 14.6501C17.336 14.8616 17.4132 14.9895 17.4615 15.089C17.4884 15.1444 17.4969 15.1727 17.4993 15.1834M0.248176 14.7333L17.4993 15.1834M17.1879 15.6938C17.3249 15.4904 17.4068 15.3682 17.4588 15.2725C17.4869 15.2208 17.4964 15.1939 17.4993 15.1834M17.1879 15.6938L17.4993 15.1834M7.84085 1.1374C6.26079 1.55135 4.89368 2.92128 4.4613 4.53817C4.38642 4.81822 4.34243 5.24654 4.34243 5.70074C4.34243 6.15493 4.38643 6.58327 4.46131 6.86332M7.84085 1.1374C8.53385 0.955873 9.4891 0.953868 10.1912 1.13343L7.84085 1.1374ZM4.46131 6.86332L3.97827 6.99247L4.46131 6.86332ZM17.5005 15.1782C17.5006 15.1781 17.5005 15.1787 17.5002 15.1798L17.5005 15.1782Z" fill="url(#paint0_radial_126_67)" stroke="#00FF0D"/>
<defs>
<radialGradient id="paint0_radial_126_67" cx="0" cy="0" r="1" gradientUnits="userSpaceOnUse" gradientTransform="translate(9 10.5) rotate(90) scale(17.5 15.75)">
<stop stop-color="#00FF0D"/>
<stop offset="1" stop-color="#00FF0D" stop-opacity="0"/>
</radialGradient>
</defs>
</svg>
